<?xml version="1.0" standalone="no"?>
<!DOCTYPE svg PUBLIC "-//W3C//DTD SVG 20010904//EN"
 "http://www.w3.org/TR/2001/REC-SVG-20010904/DTD/svg10.dtd">
<svg version="1.0" xmlns="http://www.w3.org/2000/svg"
 width="700.000000pt" height="700.000000pt" viewBox="0 0 700.000000 700.000000"
 preserveAspectRatio="xMidYMid meet">
<metadata>
Created by potrace 1.14, written by Peter Selinger 2001-2017
</metadata>
<g transform="translate(0.000000,700.000000) scale(0.100000,-0.100000)"
fill="#000000" stroke="none">
<path d="M73 6984 c-63 -31 -90 -117 -56 -178 6 -10 497 -505 1092 -1101
l1082 -1082 -648 0 c-515 0 -654 -3 -673 -13 -34 -18 -70 -57 -71 -78 -1 -9
-3 -28 -4 -42 -4 -40 30 -95 70 -114 34 -16 101 -18 856 -18 784 0 820 1 851
19 18 10 41 33 51 51 18 31 19 67 19 851 0 901 2 866 -60 907 -62 41 -165 10
-193 -58 -9 -22 -12 -194 -12 -674 l0 -645 -1088 1088 c-599 598 -1099 1091
-1111 1095 -39 11 -72 8 -105 -8z"/>
<path d="M6810 6986 c-13 -8 -511 -500 -1105 -1095 l-1082 -1082 0 649 c0 506
-3 653 -13 673 -51 97 -179 100 -235 6 -15 -26 -17 -100 -17 -852 0 -790 1
-826 19 -857 10 -18 33 -41 51 -51 31 -18 68 -19 851 -19 756 0 822 1 855 17
104 49 87 216 -24 243 -8 2 -304 3 -658 4 l-643 1 1082 1082 c595 595 1088
1093 1095 1106 28 50 7 132 -42 164 -35 23 -103 28 -134 11z"/>
<path d="M2778 4226 c0 -1 -2 -327 -3 -726 l-1 -726 725 1 726 0 1 710 c1 391
0 717 -2 726 -4 14 -77 15 -724 15 -396 0 -721 0 -722 0z m1179 -270 c4 -4 8
-804 4 -901 -1 -20 -8 -20 -461 -20 -453 0 -460 0 -461 20 0 11 -1 217 -1 459
0 290 3 440 10 445 13 8 901 6 909 -3z"/>
<path d="M925 2640 c-62 -7 -92 -25 -115 -70 -32 -63 -13 -134 48 -172 34 -21
40 -21 684 -21 l649 0 -1082 -1081 c-594 -595 -1087 -1093 -1095 -1107 -28
-51 -7 -132 44 -165 36 -24 94 -29 128 -11 15 8 514 501 1109 1096 l1082 1082
0 -648 c0 -711 -2 -688 60 -728 38 -25 111 -25 146 1 62 45 59 6 59 905 0 783
-1 820 -19 851 -10 18 -33 41 -51 51 -30 18 -70 19 -814 20 -431 1 -805 0
-833 -3z"/>
<path d="M4514 2640 c-79 -6 -115 -24 -140 -71 -14 -28 -16 -116 -16 -848 0
-509 4 -825 10 -841 32 -81 125 -111 198 -63 58 37 56 19 57 720 0 354 3 643
6 643 3 0 490 -484 1081 -1076 591 -591 1087 -1082 1102 -1090 58 -30 137 -4
170 57 21 39 22 72 5 112 -7 15 -499 515 -1095 1111 l-1083 1083 649 0 c725 1
694 -2 731 71 35 70 12 145 -55 177 -32 15 -109 17 -792 18 -416 1 -789 0
-828 -3z"/>
</g>
</svg>
